<?xml version="1.0"?><svg width="640" height="480" xmlns="http://www.w3.org/2000/svg">
 <title>Blue Swallow</title>
 <metadata id="metadata4">image/svg+xml</metadata>
 <g>
  <title>Layer 1</title>
  <g id="layer1">
   <path fill="#bef7f7" id="path2453" d="m310.118317,463.032166c-28.070648,-1.659912 -49.858795,-28.860443 -78.156372,-29.115295c-74.403976,-0.670013 -69.693665,-26.155731 -90.836227,-21.852448c-11.645599,2.370239 -23.281631,-2.730377 -30.442261,-8.79425c-7.302368,-6.184052 -6.924126,-8.899475 -16.023811,-8.899475c-8.249298,0 -20.513458,6.848236 -21.362953,5.30658c-0.596237,-18.810577 16.896446,-26.260132 16.862534,-29.956024c-0.761208,-47.520844 38.666245,-49.607452 55.509308,-46.73819c-10.113922,-22.355865 -21.331947,-44.0737 -26.992638,-68.522644c-13.18779,-26.338913 -15.364906,-43.431122 -27.271484,-87.143555c-11.906593,-43.712341 -56.315525,-108.560356 -74.914404,-163.024861c25.213068,4.59681 50.120382,36.371655 65.422987,59.021085c15.682571,17.31144 28.232574,37.513237 42.49601,56.186409c25.447441,27.167618 34.219444,66.891022 53.924431,97.671783c5.990997,0.033432 31.738983,15.991714 36.898071,22.86908c5.379288,7.170685 8.229095,4.760117 11.523941,8.3078l23.79985,25.626236c65.581512,-2.611328 109.77652,-16.444885 157.715881,-64.149612c17.3638,-18.104156 35.915558,-34.673004 53.416992,-52.596924c15.390869,-15.964081 31.351715,-25.97673 33.934814,-21.288391c-5.098083,14.749084 -88.404846,117.013992 -70.084991,117.913422c40.694824,-4.162048 80.498993,-16.192276 120.147125,-27.083618c33.024109,-9.153976 51.702209,-11.723663 53.110535,-7.306763c-60.085999,43.630142 -131.786072,56.348434 -196.987885,86.476303c-26.246216,10.959381 -50.160217,29.84964 -66.694275,55.395355c4.937073,6.809326 9.74118,13.434967 19.173615,16.362183c60.600861,18.806702 125.840393,13.349152 187.717285,29.079712c9.793213,5.128418 38.211121,2.812805 37.59375,19.495087c-1.015869,5.763153 -2.917053,5.848053 -42.109253,1.879669c-47.760132,-7.475494 -93.261017,9.038452 -139.589294,16.796539c-28.694733,6.096832 -58.182251,19.547852 -87.781281,18.084808zm-80.01149,-58.729797c16.329208,-14.969238 -34.5616,-27.681732 -43.987167,-32.380859c-13.448914,-8.049835 -25.684402,-9.26062 -25.684402,-2.541779c-5.280258,7.442474 -44.084671,3.566132 -35.31044,13.921539c25.49472,11.062225 53.373962,23.973114 80.850647,26.73645c11.720963,-0.494293 19.523132,-2.348633 24.131363,-5.735352zm-107.837204,-45.801117c-6.791817,1.602142 1.078117,-8.274475 -7.230049,-2.811066c-2.249306,7.620209 4.183212,8.725677 7.230049,2.811066zm199.166992,-11.300049c10.967102,-9.759644 13.657471,-14.296417 14.756531,-24.882965c1.090942,-10.51059 -6.40155,-12.845367 -17.199768,-5.359802c-4.525146,3.136871 -9.911316,5.70343 -11.969513,5.70343c-7.364655,0 -7.794067,18.590088 -0.634338,27.464203c2.469238,3.060303 4.718475,5.564117 4.998688,5.564117c0.279999,0 4.801849,-3.820038 10.048401,-8.488983z"/>
  </g>
  <rect id="svg_12" height="47" width="142" y="362" x="132" stroke-linecap="null" stroke-linejoin="null" stroke-dasharray="null" stroke-width="null" fill="#bef7f7"/>
  <rect id="svg_13" height="42" width="34" y="347" x="108" stroke-linecap="null" stroke-linejoin="null" stroke-dasharray="null" stroke-width="null" fill="#bef7f7"/>
  <rect id="svg_14" height="14" width="36" y="402" x="187" stroke-linecap="null" stroke-linejoin="null" stroke-dasharray="null" stroke-width="null" fill="#bef7f7"/>
  <rect id="svg_15" height="60" width="43" y="299" x="287" stroke-linecap="null" stroke-linejoin="null" stroke-dasharray="null" stroke-width="null" fill="#bef7f7"/>
  <rect id="svg_16" height="46" width="22" y="295" x="319" stroke-linecap="null" stroke-linejoin="null" stroke-dasharray="null" stroke-width="null" fill="#bef7f7"/>
  <rect id="svg_17" height="57" width="54" y="341" x="108" stroke-linecap="null" stroke-linejoin="null" stroke-dasharray="null" stroke-width="null" fill="#bef7f7"/>
  <rect id="svg_18" height="35" width="42" y="293" x="307" stroke-linecap="null" stroke-linejoin="null" stroke-dasharray="null" stroke-width="null" fill="#bef7f7"/>
 </g>
</svg>